<?xml version="1.0" encoding="UTF-8"?>
<svg id="Layer_1" data-name="Layer 1" xmlns="http://www.w3.org/2000/svg" viewBox="0 0 752.11 215.54">
  <defs>
    <style>
      .cls-1 {
        fill: #ee3423;
      }
    </style>
  </defs>
  <g>
    <path class="cls-1" d="M173.76,127.07v50.38c3.43-7.25,5.25-15.56,5.21-24.76v-.57c.1-9.75-1.76-18.02-5.21-25.05Z"/>
    <path class="cls-1" d="M173.76,127.07v50.38c-3.85,8.14-9.72,14.93-17.25,20.15-14.2,9.89-33.79,14.51-56.91,14.52H0V3.25h97.32c21.14,0,38.66,5.22,51.11,15.05,12.49,9.78,19.49,24.31,19.44,41.26v.56c.11,20.02-9.13,33.42-20.8,42.13,11.83,5.71,21.25,13.69,26.69,24.82Z"/>
    <path class="cls-1" d="M347.5,127.05v50.43c3.44-7.26,5.27-15.58,5.22-24.79v-.57c.11-9.76-1.76-18.04-5.22-25.07ZM173.76,127.07v50.38c3.43-7.25,5.25-15.56,5.21-24.76v-.57c.1-9.75-1.76-18.02-5.21-25.05Z"/>
    <path class="cls-1" d="M347.5,127.05v50.43c-3.85,8.12-9.71,14.91-17.23,20.12-14.2,9.89-33.79,14.51-56.92,14.52h-99.59v-34.67c3.43-7.25,5.25-15.56,5.21-24.76v-.57c.1-9.75-1.76-18.02-5.21-25.05V3.25h97.31c21.13,0,38.66,5.22,51.12,15.05,12.47,9.78,19.48,24.31,19.43,41.26v.56c.12,20.02-9.12,33.42-20.8,42.13,11.82,5.71,21.23,13.68,26.68,24.8Z"/>
    <path class="cls-1" d="M347.5,127.05v50.43c3.44-7.26,5.27-15.58,5.22-24.79v-.57c.11-9.76-1.76-18.04-5.22-25.07ZM520.37,44.96c-3.84,8.74-6.11,18.35-6.56,28.43-.69,15.67,2.72,39.55,22.04,66.51,3.19-10.12,4.87-20.94,4.87-32.22v-.56c.01-23.51-7.31-44.96-20.35-62.16Z"/>
    <path class="cls-1" d="M535.85,139.9c-5.09,16.17-14.03,30.54-26.08,42.09-19.57,18.81-47.3,30.14-79.71,30.14h-82.56v-34.65c3.44-7.26,5.27-15.58,5.22-24.79v-.57c.11-9.76-1.76-18.04-5.22-25.07V3.24h82.5c32.42,0,60.17,11.16,79.76,29.83,3.87,3.68,7.42,7.66,10.61,11.89-3.84,8.74-6.11,18.35-6.56,28.43-.69,15.67,2.72,39.55,22.04,66.51Z"/>
  </g>
  <path class="cls-1" d="M520.37,44.96c-3.84,8.74-6.11,18.35-6.56,28.43-.69,15.67,2.72,39.55,22.04,66.51,3.19-10.12,4.87-20.94,4.87-32.22v-.56c.01-23.51-7.31-44.96-20.35-62.16Z"/>
  <path class="cls-1" d="M644.57,209.27l-11.65,6.27-11.65-6.27c-43.32-23.33-69.66-47.38-85.42-69.37,3.19-10.12,4.87-20.94,4.87-32.22v-.56c.01-23.51-7.31-44.96-20.35-62.16,7.61-17.34,21.39-31.31,39.31-38.93,23.45-9.98,50.16-7.38,73.24,6.37,23.09-13.75,49.79-16.35,73.25-6.37,26.96,11.47,44.53,37.28,45.86,67.36,1.26,28.46-11.03,83.95-107.46,135.88Z"/>
</svg>